<?xml version="1.0" standalone="yes"?>
<svg width="271" height="192">
<path style="fill:#ffffff; stroke:none;" d="M0 0L0 192L271 192L271 0L0 0z"/>
<path style="fill:#f0ffd9; stroke:none;" d="M47 20C50.9587 21.6611 55.7366 21 60 21C56.0413 19.3389 51.2634 20 47 20z"/>
<path style="fill:#d1ecb0; stroke:none;" d="M46 21L46 29C47.1614 26.2301 47.1614 23.7698 46 21z"/>
<path style="fill:#c5f081; stroke:none;" d="M47 21L47 29C47.9845 26.6685 47.9813 24.5434 48 22L62 22C57.5285 20.1237 51.8167 21 47 21z"/>
<path style="fill:#d8ffa6; stroke:none;" d="M62 21C63.769 21.7789 65.0359 21.9124 67 22C65.231 21.2211 63.9641 21.0876 62 21z"/>
<path style="fill:#efffdc; stroke:none;" d="M67 21C68.7691 21.7789 70.0359 21.9124 72 22C70.231 21.2211 68.9641 21.0876 67 21z"/>
<path style="fill:#b3f36e; stroke:none;" d="M48 22L48 37C48.7789 35.2309 48.9124 33.9641 49 32C58.8496 34.1702 69.034 31.9627 78.9606 33.1289C84.5265 33.7827 89.2925 36.8315 95 37C93.0758 35.3969 91.409 34.7526 89 34C95.0743 33.2973 100.092 35.1307 106 36C90.3545 22.6987 67.5018 22 48 22z"/>
<path style="fill:#d9f8b0; stroke:none;" d="M67 22C70.6028 23.5259 75.0826 23.6908 79 24C75.2785 21.7707 71.2405 22.0028 67 22z"/>
<path style="fill:#ebffc8; stroke:none;" d="M79 23C80.506 23.683 81.3148 23.8259 83 24C81.4939 23.317 80.6852 23.1741 79 23z"/>
<path style="fill:#d8f9a0; stroke:none;" d="M80 24C81.2484 24.6848 81.5484 24.7488 83 25C81.7517 24.3152 81.4515 24.2512 80 24z"/>
<path style="fill:#efffd4; stroke:none;" d="M83.6667 24.3333C83.2222 24.7778 84.2778 24.7222 84.3333 24.6667C84.7778 24.2222 83.7222 24.2778 83.6667 24.3333z"/>
<path style="fill:#d0ef9a; stroke:none;" d="M83 25C84.2484 25.6848 84.5484 25.7488 86 26C84.7517 25.3152 84.4515 25.2512 83 25z"/>
<path style="fill:#dffabe; stroke:none;" d="M86 25C87.5398 26.8031 88.5975 26.832 91 27C89.2495 25.7451 88.1426 25.3863 86 25z"/>
<path style="fill:#e8f8c7; stroke:none;" d="M91 27C94.8647 30.092 100.215 31.807 105 33C101.316 29.3196 96.0646 27.8609 91 27z"/>
<path style="fill:#e8fed5; stroke:none;" d="M46 29L46 36C47.0594 33.4657 47.0595 31.5343 46 29z"/>
<path style="fill:#caf399; stroke:none;" d="M47 29L47 37C48.1614 34.2301 48.1614 31.7698 47 29z"/>
<path style="fill:#a3ed74; stroke:none;" d="M49 32C49.0004 36.0486 48.6191 39.6008 51 43C57.2808 39.507 63.3676 41.641 69.9992 42.4915C73.9613 42.9997 78.0597 42.4176 82 42C82.8544 44.5251 83.5083 45.03 86 46C87.1708 44.4841 88.4687 42.179 90.6111 41.9167C94.131 41.4857 98.589 48.5848 100 42C104.029 43.0678 107.979 42.2059 112.015 42.909C115.093 43.4452 118.048 44.9955 121 46C117.422 38.6709 107.818 33.3505 100 32C101.949 33.5733 103.588 34.2909 106 35C100.488 35.3656 94.6222 33.3798 89 33C90.9241 34.603 92.591 35.2474 95 36C89.5693 37.2865 85.239 33.7715 79.9105 33.1289C69.6991 31.8974 59.283 33.3098 49 32z"/>
<path style="fill:#e0ffc6; stroke:none;" d="M105 33C106.248 33.6848 106.548 33.7488 108 34C106.752 33.3152 106.452 33.2512 105 33z"/>
<path style="fill:#eaffda; stroke:none;" d="M108 34C109.223 35.1951 109.42 35.3165 111 36C109.777 34.8048 109.58 34.6836 108 34z"/>
<path style="fill:#d9f9d2; stroke:none;" d="M47 37L47 40C47.6961 38.4463 47.6961 38.5537 47 37z"/>
<path style="fill:#caf2b6; stroke:none;" d="M48 37L48 45C49.1614 42.2301 49.1614 39.7699 48 37z"/>
<path style="fill:#ccffbd; stroke:none;" d="M112 37C113.139 38.0154 113.612 38.3087 115 39C114.02 37.2167 114.092 37.4057 112 37z"/>
<path style="fill:#ebffd9; stroke:none;" d="M116.667 40.3333C116.222 40.7778 117.278 40.7222 117.333 40.6667C117.778 40.2222 116.722 40.2778 116.667 40.3333z"/>
<path style="fill:#97e97b; stroke:none;" d="M52 43C50.5215 42.0143 50.7968 42 49 42C49.4499 45.0462 49.9587 48.9935 52.0849 51.4012C53.9502 53.5136 56.3974 53.5005 58 56L61 56L61 53C67.3008 53 83.6553 56.0646 86 49C90.8697 49.0441 94.4762 50.3942 99 52C103.177 45.5569 118.367 49.4485 125 50C119.792 41.2494 108.493 43.2635 100 42C97.1136 46.3331 94.9803 42.0011 91.0046 42C88.3018 41.9992 87.1945 43.9732 86 46C83.882 44.7824 83.1554 44.133 82 42C74.8183 42.3123 68.0948 41.0961 61 41.0039C57.6974 40.9609 54.2584 40.4155 52 43z"/>
<path style="fill:#b7e6a3; stroke:none;" d="M119.333 42.6667C119.278 42.7222 119.222 43.7778 119.667 43.3333C119.722 43.2777 119.778 42.2223 119.333 42.6667z"/>
<path style="fill:#b0e094; stroke:none;" d="M121 44C121.482 46.364 121.636 46.5175 124 47C122.897 45.5434 122.457 45.1034 121 44z"/>
<path style="fill:#d5f1c5; stroke:none;" d="M49 45L49 48C49.6961 46.4463 49.6961 46.5537 49 45z"/>
<path style="fill:#eaffd6; stroke:none;" d="M124 45L125 49C125.393 47.076 125.146 46.6405 124 45z"/>
<path style="fill:#cdeec1; stroke:none;" d="M50 48L50 51C50.6961 49.4463 50.6961 49.5537 50 48z"/>
<path style="fill:#87e47b; stroke:none;" d="M99 49L99 53L116 58C118.036 56.2403 120.396 55.68 123 55C121.723 56.915 121.723 56.085 123 58C124.661 57.7924 124.54 57.5046 125 59C126.797 59 126.521 58.9857 128 58C129.57 60.5828 131.282 61.6751 134 63C132.172 56.6718 128.062 53.819 124 49C116.095 49.924 107.115 49 99 49z"/>
<path style="fill:#93d97f; stroke:none;" d="M86 49C86.168 51.4025 86.1969 52.4602 88 54L87 51C93.7669 51.3473 99.8181 54.4644 106 57C102.059 51.0341 92.7192 49.0193 86 49z"/>
<path style="fill:#9dd091; stroke:none;" d="M125 49C125.823 51.712 126.567 52.5381 129 54C127.942 51.7995 126.881 50.565 125 49z"/>
<path style="fill:#c7e8ba; stroke:none;" d="M127.333 50.6667C127.278 50.7222 127.222 51.7778 127.667 51.3333C127.722 51.2777 127.778 50.2223 127.333 50.6667z"/>
<path style="fill:#bbf1ae; stroke:none;" d="M51 51L51 54C51.6961 52.4463 51.6961 52.5537 51 51z"/>
<path style="fill:#d2ffcb; stroke:none;" d="M87 51C89.4048 54.9769 94.1212 56.1038 98 58.4637C103.456 61.783 108.161 66.4015 114 69C109.668 62.9017 103.207 58.1208 96 56C102.974 55.5343 108.522 61.9359 115 64C108.77 56.0419 96.854 51.8049 87 51z"/>
<path style="fill:#b8e8aa; stroke:none;" d="M91.6667 51.3333C91.2222 51.7778 92.2778 51.7222 92.3333 51.6667C92.7777 51.2222 91.7222 51.2778 91.6667 51.3333z"/>
<path style="fill:#79df80; stroke:none;" d="M61 56L58 56L58 53L54 53C54.5058 56.9136 55.2619 60.4494 57 64C59.7703 64.3084 61.6075 65.5634 64 67L65 63C69.8544 62.879 75.1002 62.2406 79.9113 63.1073C82.3795 63.5519 84.4888 64.7666 87.0394 64.9444C91.2498 65.2381 95.4163 63.5034 99 66C100.195 65.4023 99.9774 65.5339 101 64C102.594 65.2965 103.018 65.5354 105 66C103.964 67.1863 103.661 67.6036 103 69C105.867 68.6113 107.743 67.8103 110 66C105.703 63.077 101.564 59.8127 97 57.3133C93.4003 55.3419 89.1805 54.5157 86 52C80.1711 53.5674 74.0005 53 68 53C64.6098 53 61.7972 52.2799 61 56z"/>
<path style="fill:#92d390; stroke:none;" d="M52 53L54 59C54.8084 56.2785 54.2503 54.7076 52 53z"/>
<path style="fill:#bbe6b4; stroke:none;" d="M92.6667 53.3333C92.2222 53.7778 93.2778 53.7222 93.3333 53.6667C93.7777 53.2222 92.7222 53.2778 92.6667 53.3333z"/>
<path style="fill:#dbffd3; stroke:none;" d="M129 53C129.545 54.6351 129.365 54.4549 131 55L131 53L129 53z"/>
<path style="fill:#cbedc3; stroke:none;" d="M52 54L52 57C52.6961 55.4463 52.6961 55.5537 52 54z"/>
<path style="fill:#b0d3a8; stroke:none;" d="M94.6667 54.3333C94.2222 54.7778 95.2778 54.7222 95.3333 54.6667C95.7777 54.2222 94.7222 54.2778 94.6667 54.3333z"/>
<path style="fill:#9fc795; stroke:none;" d="M96.6667 55.3333C96.2222 55.7778 97.2778 55.7222 97.3333 55.6667C97.7778 55.2222 96.7222 55.2778 96.6667 55.3333z"/>
<path style="fill:#adf2aa; stroke:none;" d="M98.6667 55.3333C98.2222 55.7778 99.2778 55.7222 99.3333 55.6667C99.7778 55.2222 98.7222 55.2778 98.6667 55.3333z"/>
<path style="fill:#76df7f; stroke:none;" d="M106 56C109.119 59.6782 113.324 62.2864 117 65.4282C120.883 68.7474 123.985 72.5923 129 74C129.684 72.42 129.805 72.2228 131 71L131 65C131.957 66.5167 132.387 67.3385 133 69C135.058 63.9115 131.132 61.4886 128 58L125 59C124.31 57.4628 124.672 57.6618 123 58L122 57L123 55C120.13 55 119.306 55.8472 117 57L116 56L116 58C112.3 56.2218 110.13 55.1208 106 56z"/>
<path style="fill:#9ad59d; stroke:none;" d="M98 56C99.1394 57.0154 99.6116 57.3087 101 58C100.02 56.2167 100.092 56.4057 98 56z"/>
<path style="fill:#cff4d1; stroke:none;" d="M53.3333 57.6667C53.2777 57.7223 53.2222 58.7777 53.6667 58.3333C53.7222 58.2778 53.7778 57.2222 53.3333 57.6667z"/>
<path style="fill:#75c990; stroke:none;" d="M101 57C105.192 62.076 111.163 65.5723 115.91 70.1698C119.249 73.4025 121.103 76.7896 126 77C121.478 68.3078 110.394 59.7643 101 57z"/>
<path style="fill:#caf2cb; stroke:none;" d="M54.3333 59.6667C54.2778 59.7222 54.2222 60.7778 54.6667 60.3333C54.7222 60.2778 54.7778 59.2222 54.3333 59.6667z"/>
<path style="fill:#c4f3cc; stroke:none;" d="M133.333 59.6667C133.278 59.7222 133.222 60.7778 133.667 60.3333C133.722 60.2778 133.778 59.2222 133.333 59.6667z"/>
<path style="fill:#c2ecc2; stroke:none;" d="M55.3333 61.6667C55.2778 61.7222 55.2222 62.7778 55.6667 62.3333C55.7222 62.2778 55.7778 61.2222 55.3333 61.6667z"/>
<path style="fill:#c7fad2; stroke:none;" d="M134.333 61.6667C134.278 61.7222 134.222 62.7778 134.667 62.3333C134.722 62.2778 134.778 61.2222 134.333 61.6667z"/>
<path style="fill:#6fdb81; stroke:none;" d="M65 63L64 67C62.0193 65.3612 60.2888 64.1496 58 63L57 64L61 72C62.1954 71.4023 61.9774 71.5339 63 70C64.0733 72.5815 65.4019 74.6972 67 77C69.3807 74.2799 71.3367 70.2986 75.054 69.3171C82.5317 67.3428 98.8601 73.4099 102 64C100.686 64.7679 100.768 64.6858 100 66C96.0667 63.2878 92.5041 65.154 88.0147 64.9306C85.0654 64.7838 82.7592 63.0721 79.9105 62.696C75.0429 62.0533 69.8704 62.6723 65 63z"/>
<path style="fill:#ccf4ce; stroke:none;" d="M56.3333 63.6667C56.2778 63.7222 56.2222 64.7778 56.6667 64.3333C56.7222 64.2778 56.7778 63.2222 56.3333 63.6667z"/>
<path style="fill:#96daa4; stroke:none;" d="M134.333 63.6667C134.278 63.7222 134.222 64.7778 134.667 64.3333C134.722 64.2778 134.778 63.2222 134.333 63.6667z"/>
<path style="fill:#ccf8d6; stroke:none;" d="M135 63L135 66C135.696 64.4463 135.696 64.5537 135 63z"/>
<path style="fill:#c2ffd8; stroke:none;" d="M114 64C117.53 68.7957 122.438 72.3225 126.192 77C130.312 82.1331 133.292 88.4389 138 93L139 92C133.511 82.1398 125.173 67.7984 114 64z"/>
<path style="fill:#c9eece; stroke:none;" d="M198 64C203.469 66.295 211.099 65 217 65C211.531 62.705 203.901 64 198 64z"/>
<path style="fill:#c2f7d0; stroke:none;" d="M57 65L58 69C58.393 67.076 58.1456 66.6404 57 65z"/>
<path style="fill:#63d188; stroke:none;" d="M131 65C130.816 67.1108 130.762 68.9052 131 71C128.81 72.261 127.953 73.6495 127 76C129.38 77.0736 130.475 77.8844 132 80C133.144 78.0815 133.174 77.2681 133 75C135.181 76.896 136.069 78.2593 137 81C139.304 75.5062 136.757 70.282 135 65C134.317 66.5061 134.174 67.3148 134 69C133.03 67.3998 132.28 66.3372 131 65z"/>
<path style="fill:#c4f3ca; stroke:none;" d="M189 65C191.052 65.8743 192.747 65.9528 195 66C192.948 65.1257 191.253 65.0472 189 65z"/>
<path style="fill:#87dc9e; stroke:none;" d="M195 65C196.506 65.683 197.315 65.8259 199 66C197.494 65.317 196.685 65.1741 195 65z"/>
<path style="fill:#62d487; stroke:none;" d="M180 69C179.193 71.6685 178.421 74.2399 178 77C189.608 76.4491 201.371 77 213 77C216.545 77 223.304 78.2801 226.272 75.9722C228.484 74.253 228.657 70.5328 229 68C212.288 62.7024 196.605 66.5478 180 69z"/>
<path style="fill:#98d9a4; stroke:none;" d="M211 65C213.613 66.0977 216.165 65.9928 219 66C216.387 64.9023 213.836 65.0072 211 65z"/>
<path style="fill:#cbfcd7; stroke:none;" d="M219 65C221.613 66.0977 224.165 65.9928 227 66C224.387 64.9023 221.835 65.0072 219 65z"/>
<path style="fill:#64d584; stroke:none;" d="M68 78C83.2533 76.8602 99.7243 75.6495 115 77C115.916 67.8558 110.109 67.4213 103 69C103.545 67.3648 103.365 67.5451 105 67C101.26 66.0032 97.8518 68.6636 94 68.9452C84.5461 69.6364 70.0043 65.1156 68 78z"/>
<path style="fill:#93cda2; stroke:none;" d="M135.333 66.6667C135.278 66.7223 135.222 67.7778 135.667 67.3333C135.722 67.2778 135.778 66.2222 135.333 66.6667z"/>
<path style="fill:#d1fddc; stroke:none;" d="M185 66C186.248 66.6848 186.548 66.7488 188 67C186.752 66.3152 186.452 66.2512 185 66z"/>
<path style="fill:#a3e4b1; stroke:none;" d="M188.667 66.3333C188.222 66.7777 189.278 66.7223 189.333 66.6667C189.778 66.2222 188.722 66.2778 188.667 66.3333z"/>
<path style="fill:#9ce4af; stroke:none;" d="M224 66C225.248 66.6848 225.548 66.7488 227 67C225.752 66.3152 225.452 66.2512 224 66z"/>
<path style="fill:#c1edcc; stroke:none;" d="M227 66C228.248 66.6848 228.548 66.7488 230 67C228.752 66.3152 228.452 66.2512 227 66z"/>
<path style="fill:#c8f4d3; stroke:none;" d="M136.333 67.6667C136.278 67.7222 136.222 68.7778 136.667 68.3333C136.722 68.2778 136.778 67.2222 136.333 67.6667z"/>
<path style="fill:#b4e4bf; stroke:none;" d="M184 67C185.248 67.6848 185.548 67.7488 187 68C185.752 67.3152 185.452 67.2512 184 67z"/>
<path style="fill:#84ca95; stroke:none;" d="M227 67C228.17 69.0749 228.692 70.6371 229 73C229.874 70.9479 229.953 69.2529 230 67L227 67z"/>
<path style="fill:#b8f0cd; stroke:none;" d="M230 67C229.736 73.1434 227.816 78.9417 227 85C230.242 80.4505 232.212 72.2834 230 67z"/>
<path style="fill:#bcffcf; stroke:none;" d="M114 68C116.014 73.9229 121.081 79.2384 126 83C123.715 77.1008 119.067 71.7295 114 68z"/>
<path style="fill:#bfe7c4; stroke:none;" d="M181 68C182.248 68.6848 182.548 68.7488 184 69C182.752 68.3152 182.452 68.2512 181 68z"/>
<path style="fill:#cff6d2; stroke:none;" d="M137 69L137 72C137.696 70.4463 137.696 70.5537 137 69z"/>
<path style="fill:#a5ecb7; stroke:none;" d="M178.667 69.3333C178.222 69.7777 179.278 69.7222 179.333 69.6667C179.778 69.2222 178.722 69.2778 178.667 69.3333z"/>
<path style="fill:#5dc28b; stroke:none;" d="M62 70C63.5974 76.1428 68.2881 81.3346 74 84C73.3413 81.3907 72.3126 79.3604 71 77C66.6906 76.5198 64.9365 72.8822 62 70z"/>
<path style="fill:#6bc78e; stroke:none;" d="M165 83C169.87 80.5834 177.517 74.7789 180 70C173.45 71.5717 168.039 77.1453 165 83z"/>
<path style="fill:#5cc38b; stroke:none;" d="M228 71L225 89C227.853 84.3292 230.166 76.2104 228 71z"/>
<path style="fill:#4dce8a; stroke:none;" d="M115 72L115 77C110.398 75.8016 105.726 76.9767 101 76.9992C91.1244 77.0462 80.7392 76.4435 71 78C72.3126 80.3604 73.3413 82.3907 74 85C88.4165 91.1173 105.055 81.1264 120.42 84.9344C124 85.8219 126.04 89.0811 129 91C126.78 83.4562 121.367 76.5222 115 72z"/>
<path style="fill:#beefcc; stroke:none;" d="M62 73L63 74L62 73z"/>
<path style="fill:#aedfbf; stroke:none;" d="M173 73L174 74L173 73z"/>
<path style="fill:#b4e8c3; stroke:none;" d="M63 74L64 75L63 74z"/>
<path style="fill:#d3fce0; stroke:none;" d="M138 74L138 77C138.696 75.4463 138.696 75.5537 138 74z"/>
<path style="fill:#4ace89; stroke:none;" d="M161 91L173 87C172.045 88.7672 171.434 89.6074 170 91C173.784 91.8883 177.345 89.1366 181 88.044C188.936 85.6713 203.81 81.5526 211 87L213 87C214.543 85.7333 215.048 85.5108 217 85L217 89L221 89L220 85C224.866 85.3736 225.844 83.6761 226 79C209.778 80.7314 191.907 76.7195 176 81L179 75C171.143 74.1001 163.067 84.0611 161 91z"/>
<path style="fill:#cef7df; stroke:none;" d="M64.3333 75.6667C64.2778 75.7222 64.2222 76.7778 64.6667 76.3333C64.7222 76.2778 64.7778 75.2222 64.3333 75.6667z"/>
<path style="fill:#48d592; stroke:none;" d="M133 75C133.364 79.5212 133.784 82.6643 138 85C137.621 80.694 136.884 77.2457 133 75z"/>
<path style="fill:#63bc84; stroke:none;" d="M129 76C129.81 78.2222 130.739 79.9902 132 82C132.41 79.1117 131.153 77.8855 129 76z"/>
<path style="fill:#c0ecd2; stroke:none;" d="M169 76L170 77L169 76z"/>
<path style="fill:#56d189; stroke:none;" d="M176 81C192.487 78.2029 210.374 78.7852 227 80C225.987 75.2728 218.985 77 215 77C205.443 77 195.517 77.7758 186 76.9167C181.551 76.515 177.015 75.6615 176 81z"/>
<path style="fill:#59c98c; stroke:none;" d="M124 77C124.99 80.7981 126.531 83.1239 130 85C129.094 80.8617 128.232 78.2809 124 77z"/>
<path style="fill:#93d4b2; stroke:none;" d="M138 77L138 85C139.161 82.2302 139.161 79.7699 138 77z"/>
<path style="fill:#bbf8d5; stroke:none;" d="M67 79L68 80L67 79z"/>
<path style="fill:#53ba8b; stroke:none;" d="M129 81C129.364 85.3917 130.348 88.9228 132 93L135 90C133.631 86.3908 131.846 83.6103 129 81z"/>
<path style="fill:#41bb85; stroke:none;" d="M133 81C133.944 83.9867 135.286 86.376 137 89C138.207 85.4185 135.642 83.2349 133 81z"/>
<path style="fill:#d0f6e6; stroke:none;" d="M139 81L139 92C140.431 88.59 140.431 84.41 139 81z"/>
<path style="fill:#a5ecc9; stroke:none;" d="M164 81L163 85C164.434 83.6075 165.045 82.7672 166 81L164 81z"/>
<path style="fill:#b8ffe4; stroke:none;" d="M126 82C126.402 87.8803 130.699 95.0921 134 100C134.717 93.8849 130.114 86.3944 126 82z"/>
<path style="fill:#d7fce9; stroke:none;" d="M71 83C71.9802 84.7833 71.9076 84.5943 74 85C72.8606 83.9846 72.3884 83.6913 71 83z"/>
<path style="fill:#7be1ac; stroke:none;" d="M133 83L134 84L133 83z"/>
<path style="fill:#43c890; stroke:none;" d="M95 85C95.0621 86.7387 94.5223 87.3751 94 89L107 88L107 91C113.346 91 119.792 90.5221 126 92C125.321 83.103 117.839 84.4631 110.999 84.9113C105.698 85.2586 100.312 85 95 85z"/>
<path style="fill:#6dc197; stroke:none;" d="M75 85C76.2228 86.1952 76.42 86.3164 78 87C76.7772 85.8048 76.58 85.6836 75 85z"/>
<path style="fill:#34c693; stroke:none;" d="M83 87C84.9172 90.1456 87.7823 90.8402 91 92.4884C104.622 99.4662 118.87 94.5909 133 99C132.186 96.1895 129.672 88.4983 126 92C119.986 90.2223 113.243 91 107 91L107 88L94 89L96 86C91.6818 85.3585 87.4085 86.9061 83 87z"/>
<path style="fill:#59c69c; stroke:none;" d="M138 85C137.816 87.1107 137.762 88.9053 138 91C138.951 88.7148 138.951 87.2853 138 85z"/>
<path style="fill:#3ec88e; stroke:none;" d="M189 85C189.558 87.3307 190.167 90.5941 192.306 92.0556C196.495 94.9192 209.311 94.0849 212 90C213.715 93.7267 215.191 96.2923 219 98C219.96 95.6832 220.183 94.4951 220 92C221.186 93.1863 221.584 93.5279 223 94C224.285 90.9583 224.85 88.2972 225 85L220 85L221 89L217 89L217 85C214.877 85.3067 214.314 85.3821 213 87L211 87C207.196 82.6464 194.561 85 189 85z"/>
<path style="fill:#86d9b1; stroke:none;" d="M135 86L136 87L135 86z"/>
<path style="fill:#a2e2c3; stroke:none;" d="M162 86L163 87L162 86z"/>
<path style="fill:#cfffeb; stroke:none;" d="M226.333 86.6667C226.278 86.7223 226.222 87.7777 226.667 87.3333C226.722 87.2778 226.778 86.2222 226.333 86.6667z"/>
<path style="fill:#baf4d7; stroke:none;" d="M77 87L78 88L77 87z"/>
<path style="fill:#42c693; stroke:none;" d="M172 87C165.079 89.9402 161.604 89.9024 160 98C164.763 97.0185 172.889 92.7341 172 87z"/>
<path style="fill:#8fd8b3; stroke:none;" d="M182.667 87.3333C182.222 87.7777 183.278 87.7222 183.333 87.6667C183.778 87.2222 182.722 87.2778 182.667 87.3333z"/>
<path style="fill:#bbf4d3; stroke:none;" d="M184 87C185.648 87.9241 187.175 88.4494 189 89C187.46 87.1969 186.402 87.168 184 87z"/>
<path style="fill:#a1e6c3; stroke:none;" d="M189 87C188.455 88.6352 188.635 88.4549 187 89C189.033 89.7852 189.785 89.0335 189 87z"/>
<path style="fill:#77c3a1; stroke:none;" d="M79.6667 88.3333C79.2222 88.7778 80.2778 88.7222 80.3333 88.6667C80.7778 88.2222 79.7222 88.2778 79.6667 88.3333z"/>
<path style="fill:#4ab486; stroke:none;" d="M81 88C84.2236 91.5266 88.4069 92.9115 93 94C89.7391 90.8454 85.2754 89.4251 81 88z"/>
<path style="fill:#b6f1d9; stroke:none;" d="M161 88L162 89L161 88z"/>
<path style="fill:#8eecc2; stroke:none;" d="M179.667 88.3333C179.222 88.7777 180.278 88.7222 180.333 88.6667C180.778 88.2222 179.722 88.2778 179.667 88.3333z"/>
<path style="fill:#bcffe8; stroke:none;" d="M165 97C170.67 95.5418 175.307 91.6399 181 90L179 91C181.918 92.0132 184.134 91.041 187 90C179.813 86.2634 169.634 91.1347 165 97z"/>
<path style="fill:#e7fff4; stroke:none;" d="M183 88C184.769 88.7789 186.036 88.9124 188 89C186.231 88.2211 184.964 88.0876 183 88z"/>
<path style="fill:#9dcfb9; stroke:none;" d="M80.6667 89.3333C80.2222 89.7777 81.2778 89.7222 81.3333 89.6667C81.7778 89.2222 80.7222 89.2778 80.6667 89.3333z"/>
<path style="fill:#2bc092; stroke:none;" d="M190 89C186.193 91.0656 181.932 91.5324 178 93.3549C172.253 96.0191 167.371 100.722 164 106C172.209 107.701 180.76 106.052 189.079 107.001C192.583 107.4 195.618 109.119 199 110C198.422 107.303 197.739 107.211 195 107L195 103C200.058 101.828 202.978 100.99 207 105C204.305 104.155 201.806 103.343 199 103C200.079 106.325 202.651 108.71 204 112L195 114L195 116C202.602 115.221 209.181 110.89 213.995 105.114C215.282 103.571 218.372 101.39 218.098 99.1304C217.771 96.4248 213.514 92.3393 212 90C211.315 91.2484 211.251 91.5484 211 93C203.687 93 195.493 94.6527 190 89z"/>
<path style="fill:#bef5d9; stroke:none;" d="M225 89L226 90L225 89z"/>
<path style="fill:#b6e6d2; stroke:none;" d="M82 90L83 91L82 90z"/>
<path style="fill:#31c28d; stroke:none;" d="M133 90L133 95C134.195 94.4023 133.977 94.5339 135 93L136 97C136.99 94.4769 136.617 92.6417 136 90L133 90z"/>
<path style="fill:#87ceb3; stroke:none;" d="M160.333 90.6667C160.278 90.7223 160.222 91.7777 160.667 91.3333C160.722 91.2778 160.778 90.2222 160.333 90.6667z"/>
<path style="fill:#81deb4; stroke:none;" d="M174 90L175 91L174 90z"/>
<path style="fill:#abd2be; stroke:none;" d="M176 91C177.943 91.6218 178.949 91.4358 181 91C179.057 90.3782 178.051 90.5642 176 91z"/>
<path style="fill:#5ac092; stroke:none;" d="M185 90C186.506 90.683 187.315 90.8259 189 91C187.494 90.317 186.685 90.1741 185 90z"/>
<path style="fill:#acf0d4; stroke:none;" d="M224.333 90.6667C224.278 90.7223 224.222 91.7777 224.667 91.3333C224.722 91.2778 224.778 90.2222 224.333 90.6667z"/>
<path style="fill:#86cdb4; stroke:none;" d="M84.6667 91.3333C84.2222 91.7778 85.2778 91.7222 85.3333 91.6667C85.7778 91.2222 84.7222 91.2778 84.6667 91.3333z"/>
<path style="fill:#b2e6d5; stroke:none;" d="M86.6667 92.3333C86.2222 92.7778 87.2778 92.7222 87.3333 92.6667C87.7778 92.2222 86.7222 92.2778 86.6667 92.3333z"/>
<path style="fill:#beead9; stroke:none;" d="M159 92L160 93L159 92z"/>
<path style="fill:#26b788; stroke:none;" d="M160 92C158.847 95.6613 157.742 99.2259 157 103C159.507 101.205 161.205 99.5075 163 97C161.203 97 161.479 97.0143 160 98C160.529 95.6469 160.811 94.2393 160 92z"/>
<path style="fill:#66c7a3; stroke:none;" d="M172 95L176 93C173.777 92.6311 173.265 93.1405 172 95z"/>
<path style="fill:#b7ffe8; stroke:none;" d="M172 95C174.69 95.4054 176.556 94.2251 179 93C176.163 92.325 174.478 93.4949 172 95z"/>
<path style="fill:#70bd9d; stroke:none;" d="M179.667 92.3333C179.222 92.7777 180.278 92.7223 180.333 92.6667C180.778 92.2222 179.722 92.2778 179.667 92.3333z"/>
<path style="fill:#3fab84; stroke:none;" d="M220 92C220.047 94.4851 219.584 96.5846 219 99C221.298 96.5183 221.96 94.863 220 92z"/>
<path style="fill:#c7fbea; stroke:none;" d="M88 93C90.2484 94.7992 92.1633 95.4934 95 96C92.7516 94.2008 90.8368 93.5066 88 93z"/>
<path style="fill:#3eaf89; stroke:none;" d="M134 93L135 99C135.889 96.492 135.495 95.1851 134 93z"/>
<path style="fill:#5cb999; stroke:none;" d="M137.333 93.6667C137.278 93.7223 137.222 94.7778 137.667 94.3333C137.722 94.2778 137.778 93.2222 137.333 93.6667z"/>
<path style="fill:#68ba9d; stroke:none;" d="M159.333 93.6667C159.278 93.7223 159.222 94.7777 159.667 94.3333C159.722 94.2778 159.778 93.2222 159.333 93.6667z"/>
<path style="fill:#b6efd8; stroke:none;" d="M223 93L224 94L223 93z"/>
<path style="fill:#63c29f; stroke:none;" d="M93.6667 94.3333C93.2222 94.7778 94.2778 94.7222 94.3333 94.6667C94.7778 94.2222 93.7222 94.2778 93.6667 94.3333z"/>
<path style="fill:#b7f0db; stroke:none;" d="M138 94L139 95L138 94z"/>
<path style="fill:#98d7c0; stroke:none;" d="M158.333 94.6667C158.278 94.7223 158.222 95.7778 158.667 95.3333C158.722 95.2778 158.778 94.2222 158.333 94.6667z"/>
<path style="fill:#74c7a8; stroke:none;" d="M170 94L171 95L170 94z"/>
<path style="fill:#389d78; stroke:none;" d="M171 94L172 95L171 94z"/>
<path style="fill:#86d2b3; stroke:none;" d="M222 94L223 95L222 94z"/>
<path style="fill:#8fd5ba; stroke:none;" d="M95.6667 95.3333C95.2222 95.7778 96.2778 95.7222 96.3333 95.6667C96.7778 95.2222 95.7222 95.2778 95.6667 95.3333z"/>
<path style="fill:#20bd92; stroke:none;" d="M137 95C135.544 101.714 138.374 109.402 140 116C144.039 108.369 143.669 101.201 137 95z"/>
<path style="fill:#4ec09b; stroke:none;" d="M138.333 95.6667C138.278 95.7223 138.222 96.7777 138.667 96.3333C138.722 96.2778 138.778 95.2222 138.333 95.6667z"/>
<path style="fill:#39a683; stroke:none;" d="M163 103C166.245 100.709 168.709 98.245 171 95C166.819 96.6254 164.256 98.6211 163 103z"/>
<path style="fill:#83c9b0; stroke:none;" d="M171 95L172 96L171 95z"/>
<path style="fill:#6fd2b0; stroke:none;" d="M174 95L175 96L174 95z"/>
<path style="fill:#bcf2db; stroke:none;" d="M222 95L223 96L222 95z"/>
<path style="fill:#cbf4e6; stroke:none;" d="M96 96C97.2484 96.6848 97.5484 96.7488 99 97C97.7517 96.3152 97.4516 96.2512 96 96z"/>
<path style="fill:#70e2b9; stroke:none;" d="M99.6667 96.3333C99.2222 96.7778 100.278 96.7222 100.333 96.6667C100.778 96.2222 99.7222 96.2778 99.6667 96.3333z"/>
<path style="fill:#defff9; stroke:none;" d="M139 96L140 99C140.685 97.7517 140.749 97.4515 141 96L139 96z"/>
<path style="fill:#a7ead6; stroke:none;" d="M157.333 96.6667C157.278 96.7223 157.222 97.7777 157.667 97.3333C157.722 97.2778 157.778 96.2222 157.333 96.6667z"/>
<path style="fill:#a4e9d0; stroke:none;" d="M170 96L171 98C172.635 97.455 172.455 97.6351 173 96L170 96z"/>
<path style="fill:#d4fff1; stroke:none;" d="M221.333 96.6667C221.278 96.7223 221.222 97.7777 221.667 97.3333C221.722 97.2778 221.778 96.2222 221.333 96.6667z"/>
<path style="fill:#d4ffee; stroke:none;" d="M99 97C100.248 97.6848 100.548 97.7488 102 98C100.752 97.3152 100.452 97.2512 99 97z"/>
<path style="fill:#afe8d3; stroke:none;" d="M102 97C103.248 97.6848 103.548 97.7488 105 98C103.752 97.3152 103.452 97.2512 102 97z"/>
<path style="fill:#4db994; stroke:none;" d="M105 97C106.769 97.7789 108.036 97.9124 110 98C108.231 97.2211 106.964 97.0876 105 97z"/>
<path style="fill:#25ba8b; stroke:none;" d="M110 97C115.7 99.3916 124.766 98.9828 131 99C125.881 95.1216 116.237 97 110 97z"/>
<path style="fill:#93ffdc; stroke:none;" d="M164 97L164 99C165.635 98.4549 165.455 98.6352 166 97L164 97z"/>
<path style="fill:#aefaed; stroke:none;" d="M156 118C158.985 115.814 160.27 112.124 162.229 109C164.874 104.782 168.2 101.095 171 97C163.563 100.498 157.973 110.19 156 118z"/>
<path style="fill:#cffcec; stroke:none;" d="M105 98C106.506 98.683 107.315 98.8259 109 99C107.494 98.317 106.685 98.1741 105 98z"/>
<path style="fill:#7ddfbd; stroke:none;" d="M109 98C111.052 98.8742 112.747 98.9528 115 99C112.948 98.1257 111.253 98.0472 109 98z"/>
<path style="fill:#50be9b; stroke:none;" d="M115 98C117.613 99.0977 120.165 98.9928 123 99C120.387 97.9023 117.835 98.0072 115 98z"/>
<path style="fill:#38c49a; stroke:none;" d="M137 98L137 101L139 101L139 98L137 98z"/>
<path style="fill:#60c0a3; stroke:none;" d="M157 98L157 101C157.696 99.4463 157.696 99.5537 157 98z"/>
<path style="fill:#c5fff0; stroke:none;" d="M162 98L162 100C163.635 99.4549 163.455 99.6352 164 98L162 98z"/>
<path style="fill:#83d4b7; stroke:none;" d="M170 98L171 99L170 98z"/>
<path style="fill:#dbf5eb; stroke:none;" d="M220 98L219 101C220.766 100.021 220.955 99.7782 220 98z"/>
<path style="fill:#cefbec; stroke:none;" d="M115 99C117.613 100.098 120.165 99.9928 123 100C120.387 98.9023 117.835 99.0072 115 99z"/>
<path style="fill:#abe4d1; stroke:none;" d="M123 99C126.163 100.327 129.586 99.9996 133 100C129.837 98.6726 126.414 99.0004 123 99z"/>
<path style="fill:#87ebcd; stroke:none;" d="M135.333 99.6667C135.278 99.7222 135.222 100.778 135.667 100.333C135.722 100.278 135.778 99.2222 135.333 99.6667z"/>
<path style="fill:#56b59b; stroke:none;" d="M140.333 99.6667C140.278 99.7223 140.222 100.778 140.667 100.333C140.722 100.278 140.778 99.2222 140.333 99.6667z"/>
<path style="fill:#bbf1e3; stroke:none;" d="M141.333 99.6667C141.278 99.7223 141.222 100.778 141.667 100.333C141.722 100.278 141.778 99.2222 141.333 99.6667z"/>
<path style="fill:#b9e4d8; stroke:none;" d="M156.333 99.6667C156.278 99.7222 156.222 100.778 156.667 100.333C156.722 100.278 156.778 99.2222 156.333 99.6667z"/>
<path style="fill:#78d4b1; stroke:none;" d="M161 99L162 100L161 99z"/>
<path style="fill:#86dec0; stroke:none;" d="M163 99L164 100L163 99z"/>
<path style="fill:#63d7b0; stroke:none;" d="M169 99L170 100L169 99z"/>
<path style="fill:#84dbbb; stroke:none;" d="M219 99L220 100L219 99z"/>
<path style="fill:#83f2ce; stroke:none;" d="M159 102L160 103C161.457 101.897 161.897 101.457 163 100C161.048 100.511 160.543 100.733 159 102z"/>
<path style="fill:#cefdf1; stroke:none;" d="M135.333 101.667C135.278 101.722 135.222 102.778 135.667 102.333C135.722 102.278 135.778 101.222 135.333 101.667z"/>
<path style="fill:#6bccb0; stroke:none;" d="M136.333 101.667C136.278 101.722 136.222 102.778 136.667 102.333C136.722 102.278 136.778 101.222 136.333 101.667z"/>
<path style="fill:#9ff0da; stroke:none;" d="M142 101L142 104C142.696 102.446 142.696 102.554 142 101z"/>
<path style="fill:#b6f8e6; stroke:none;" d="M155 101L155 108C157.447 106.164 158.701 104.763 160 102L156 105C155.826 103.315 155.683 102.506 155 101z"/>
<path style="fill:#91d1be; stroke:none;" d="M156.333 101.667C156.278 101.722 156.222 102.778 156.667 102.333C156.722 102.278 156.778 101.222 156.333 101.667z"/>
<path style="fill:#2eae8b; stroke:none;" d="M162 101C158.462 104.903 156.684 107.661 157 113C159.884 109.761 164.15 105.357 162 101z"/>
<path style="fill:#15b896; stroke:none;" d="M195 103L195 107C197.297 107.674 197.774 107.965 199 110C187.064 105.511 175.557 106.822 163 106C161.858 108.668 158.813 112.708 159.736 115.721C160.806 119.215 166.158 118.961 169 118.996C173.876 119.056 179.065 119.455 183.91 118.871C187.757 118.408 191.025 117.044 195 117L195 114C198.161 113.724 200.979 112.958 204 112C203.011 108.395 200.687 106.209 199 103L207 105C203.863 100.27 199.685 101.33 195 103z"/>
<path style="fill:#87d6be; stroke:none;" d="M158 102L159 103L158 102z"/>
<path style="fill:#69d7b7; stroke:none;" d="M166 102L167 103L166 102z"/>
<path style="fill:#41a688; stroke:none;" d="M214 105C215.457 103.897 215.897 103.457 217 102C214.876 102.899 214.899 102.876 214 105z"/>
<path style="fill:#aeecd9; stroke:none;" d="M217 102L218 103L217 102z"/>
<path style="fill:#b4f5e3; stroke:none;" d="M136 103L136 106C136.696 104.446 136.696 104.554 136 103z"/>
<path style="fill:#69ac9a; stroke:none;" d="M156 103L156 105C157.635 104.455 157.455 104.635 158 103L156 103z"/>
<path style="fill:#a2e6d2; stroke:none;" d="M216 103L217 104L216 103z"/>
<path style="fill:#5ac9ab; stroke:none;" d="M137 104L137 107C137.696 105.446 137.696 105.554 137 104z"/>
<path style="fill:#8bd1bc; stroke:none;" d="M215 104L216 105L215 104z"/>
<path style="fill:#5cb69f; stroke:none;" d="M143.333 105.667C143.278 105.722 143.222 106.778 143.667 106.333C143.722 106.278 143.778 105.222 143.333 105.667z"/>
<path style="fill:#95dbc6; stroke:none;" d="M214 105L215 106L214 105z"/>
<path style="fill:#64cbb0; stroke:none;" d="M157 106L158 107L157 106z"/>
<path style="fill:#92d8c3; stroke:none;" d="M213 106L214 107L213 106z"/>
<path style="fill:#c0f7eb; stroke:none;" d="M137 107L137 111C137.71 109.241 137.71 108.759 137 107z"/>
<path style="fill:#6bcbb3; stroke:none;" d="M144.333 107.667C144.278 107.722 144.222 108.778 144.667 108.333C144.722 108.278 144.778 107.222 144.333 107.667z"/>
<path style="fill:#74d2b8; stroke:none;" d="M156 107L157 108L156 107z"/>
<path style="fill:#8ecdba; stroke:none;" d="M212 107L213 108L212 107z"/>
<path style="fill:#60bda8; stroke:none;" d="M138 108L138 111C138.696 109.446 138.696 109.554 138 108z"/>
<path style="fill:#baf2e8; stroke:none;" d="M145 108L145 111C145.696 109.446 145.696 109.554 145 108z"/>
<path style="fill:#8ad9c5; stroke:none;" d="M155 108L156 109L155 108z"/>
<path style="fill:#84dac7; stroke:none;" d="M160 108L161 109L160 108z"/>
<path style="fill:#a7e8d7; stroke:none;" d="M211 108L212 109L211 108z"/>
<path style="fill:#02b19d; stroke:none;" d="M143 109C140.084 114.613 141.998 120.862 142 127C142.004 138.232 140 148.941 140 160L151 160C151 146.677 150.329 133.221 152 120L148 120C147.058 116.16 145.19 112.291 143 109z"/>
<path style="fill:#2a9d86; stroke:none;" d="M144 109L146 117C147.098 113.832 146.037 111.561 144 109z"/>
<path style="fill:#11b28e; stroke:none;" d="M155 109C153.76 111.72 151.688 114.46 150.89 117.335C149.848 121.087 151.011 126.993 151 131C153.979 124.813 156.839 115.869 157 109L155 109z"/>
<path style="fill:#77c4b6; stroke:none;" d="M159 109L160 110L159 109z"/>
<path style="fill:#a4ecd9; stroke:none;" d="M210 109L211 110L210 109z"/>
<path style="fill:#75c9b5; stroke:none;" d="M154 110L155 111L154 110z"/>
<path style="fill:#7dcbb9; stroke:none;" d="M208 110L209 111L208 110z"/>
<path style="fill:#abddd8; stroke:none;" d="M138.333 111.667C138.278 111.722 138.222 112.778 138.667 112.333C138.722 112.278 138.778 111.222 138.333 111.667z"/>
<path style="fill:#d6fcf4; stroke:none;" d="M146 111L147 116C147.916 113.7 147.879 112.623 146 111z"/>
<path style="fill:#adefe0; stroke:none;" d="M153 111L154 112L153 111z"/>
<path style="fill:#7bd3c3; stroke:none;" d="M158 111L159 112L158 111z"/>
<path style="fill:#77d2c3; stroke:none;" d="M160 111L161 112L160 111z"/>
<path style="fill:#9ed7ca; stroke:none;" d="M207 111L208 112L207 111z"/>
<path style="fill:#54b69e; stroke:none;" d="M153 112L154 113L153 112z"/>
<path style="fill:#70b7a5; stroke:none;" d="M205 112L206 113L205 112z"/>
<path style="fill:#b7e4da; stroke:none;" d="M206 112L207 113L206 112z"/>
<path style="fill:#d0eff1; stroke:none;" d="M138.333 113.667C138.278 113.722 138.222 114.778 138.667 114.333C138.722 114.278 138.778 113.222 138.333 113.667z"/>
<path style="fill:#97d6c6; stroke:none;" d="M152 113L153 114L152 113z"/>
<path style="fill:#6bb8a6; stroke:none;" d="M203 113L204 114L203 113z"/>
<path style="fill:#a9dacf; stroke:none;" d="M204 113L205 114L204 113z"/>
<path style="fill:#68c0b2; stroke:none;" d="M139 114L139 117C139.696 115.446 139.696 115.554 139 114z"/>
<path style="fill:#bae9df; stroke:none;" d="M151 114L152 115L151 114z"/>
<path style="fill:#8bd0c0; stroke:none;" d="M201.667 114.333C201.222 114.778 202.278 114.722 202.333 114.667C202.778 114.222 201.722 114.278 201.667 114.333z"/>
<path style="fill:#4aae96; stroke:none;" d="M151.333 115.667C151.278 115.722 151.222 116.778 151.667 116.333C151.722 116.278 151.778 115.222 151.333 115.667z"/>
<path style="fill:#7edbc9; stroke:none;" d="M156 115L157 116L156 115z"/>
<path style="fill:#43ac97; stroke:none;" d="M158 115C158.406 117.092 158.217 117.02 160 118C159.309 116.612 159.015 116.139 158 115z"/>
<path style="fill:#98d9cd; stroke:none;" d="M199.667 115.333C199.222 115.778 200.278 115.722 200.333 115.667C200.778 115.222 199.722 115.278 199.667 115.333z"/>
<path style="fill:#3bb39e; stroke:none;" d="M140 116L140 125C141.256 122.006 141.256 118.994 140 116z"/>
<path style="fill:#6dc2ae; stroke:none;" d="M147 116L148 117L147 116z"/>
<path style="fill:#befffa; stroke:none;" d="M148 116L148 118L150 118C149.455 116.365 149.635 116.545 148 116z"/>
<path style="fill:#b1ccc8; stroke:none;" d="M150 116L151 117L150 116z"/>
<path style="fill:#68c6b1; stroke:none;" d="M195.667 116.333C195.222 116.778 196.278 116.722 196.333 116.667C196.778 116.222 195.722 116.278 195.667 116.333z"/>
<path style="fill:#b9f4e8; stroke:none;" d="M197 116C198.248 116.685 198.548 116.749 200 117C198.752 116.315 198.452 116.251 197 116z"/>
<path style="fill:#a4e9dd; stroke:none;" d="M139 117L139 125C140.161 122.23 140.161 119.77 139 117z"/>
<path style="fill:#09a594; stroke:none;" d="M141 117L141 149C142.328 145.834 142 142.419 142 139C142 132.314 143.599 123.194 141 117z"/>
<path style="fill:#97d6cb; stroke:none;" d="M155.333 117.667C155.278 117.722 155.222 118.778 155.667 118.333C155.722 118.278 155.778 117.222 155.333 117.667z"/>
<path style="fill:#16a080; stroke:none;" d="M187 117C188.769 117.779 190.036 117.912 192 118C190.231 117.221 188.964 117.088 187 117z"/>
<path style="fill:#64cdb2; stroke:none;" d="M192 117C193.248 117.685 193.548 117.749 195 118C193.752 117.315 193.452 117.251 192 117z"/>
<path style="fill:#8cf2dd; stroke:none;" d="M148.667 118.333C148.222 118.778 149.278 118.722 149.333 118.667C149.778 118.222 148.722 118.278 148.667 118.333z"/>
<path style="fill:#b6f6e8; stroke:none;" d="M158.667 118.333C158.222 118.778 159.278 118.722 159.333 118.667C159.778 118.222 158.722 118.278 158.667 118.333z"/>
<path style="fill:#7ed5be; stroke:none;" d="M160 118C161.248 118.685 161.548 118.749 163 119C161.752 118.315 161.452 118.251 160 118z"/>
<path style="fill:#54bfa4; stroke:none;" d="M187.667 118.333C187.222 118.778 188.278 118.722 188.333 118.667C188.778 118.222 187.722 118.278 187.667 118.333z"/>
<path style="fill:#8fe2cc; stroke:none;" d="M189.667 118.333C189.222 118.778 190.278 118.722 190.333 118.667C190.778 118.222 189.722 118.278 189.667 118.333z"/>
<path style="fill:#d8fff6; stroke:none;" d="M191 118C192.506 118.683 193.315 118.826 195 119C193.494 118.317 192.685 118.174 191 118z"/>
<path style="fill:#51d4b9; stroke:none;" d="M148.667 119.333C148.222 119.778 149.278 119.722 149.333 119.667C149.778 119.222 148.722 119.278 148.667 119.333z"/>
<path style="fill:#74d0be; stroke:none;" d="M154.333 119.667C154.278 119.722 154.222 120.778 154.667 120.333C154.722 120.278 154.778 119.222 154.333 119.667z"/>
<path style="fill:#b5f5eb; stroke:none;" d="M160 119C161.769 119.779 163.036 119.912 165 120C163.231 119.221 161.964 119.088 160 119z"/>
<path style="fill:#86d5c7; stroke:none;" d="M165.667 119.333C165.222 119.778 166.278 119.722 166.333 119.667C166.778 119.222 165.722 119.278 165.667 119.333z"/>
<path style="fill:#42aa96; stroke:none;" d="M167 119C171.471 120.876 177.183 120 182 120C177.529 118.124 171.817 119 167 119z"/>
<path style="fill:#76c9ba; stroke:none;" d="M182.667 119.333C182.222 119.778 183.278 119.722 183.333 119.667C183.778 119.222 182.722 119.278 182.667 119.333z"/>
<path style="fill:#98e0d3; stroke:none;" d="M184 119C185.248 119.685 185.548 119.749 187 120C185.752 119.315 185.452 119.251 184 119z"/>
<path style="fill:#c7faf0; stroke:none;" d="M187 119C188.248 119.685 188.548 119.749 190 120C188.752 119.315 188.452 119.251 187 119z"/>
<path style="fill:#bff6eb; stroke:none;" d="M165 120C170.959 122.5 179.564 121 186 121C180.041 118.5 171.436 120 165 120z"/>
<path style="fill:#dafffa; stroke:none;" d="M154 121L153 128C154.663 125.565 155.078 123.773 154 121z"/>
<path style="fill:#68c1b0; stroke:none;" d="M153 122L153 125C153.696 123.446 153.696 123.554 153 122z"/>
<path style="fill:#bcf7f0; stroke:none;" d="M139 125L139 144C141.02 139.187 141.02 129.813 139 125z"/>
<path style="fill:#4cb7ab; stroke:none;" d="M140 125L140 144C142.02 139.187 142.02 129.813 140 125z"/>
<path style="fill:#53bdaa; stroke:none;" d="M152.333 126.667C152.278 126.722 152.222 127.778 152.667 127.333C152.722 127.278 152.778 126.222 152.333 126.667z"/>
<path style="fill:#79d4c3; stroke:none;" d="M152 128L152 131C152.696 129.446 152.696 129.554 152 128z"/>
<path style="fill:#2fa491; stroke:none;" d="M151 131L151 160L140 160C143.697 161.552 148.017 161 152 161C152 152.186 154.411 139.128 151 131z"/>
<path style="fill:#a7e9df; stroke:none;" d="M152 131L152 161C154.395 155.293 153 147.154 153 141C153 137.581 153.328 134.166 152 131z"/>
<path style="fill:#a1e3da; stroke:none;" d="M139 144L139 149C139.83 146.97 139.83 146.03 139 144z"/>
<path style="fill:#34ac9a; stroke:none;" d="M140 144L140 149C140.83 146.97 140.83 146.03 140 144z"/>
<path style="fill:#70d5c7; stroke:none;" d="M139 149L139 157C140.161 154.23 140.161 151.77 139 149z"/>
<path style="fill:#d0f9f4; stroke:none;" d="M138 157L138 161C138.71 159.241 138.71 158.759 138 157z"/>
<path style="fill:#60b3a4; stroke:none;" d="M139 157L139 161C139.71 159.241 139.71 158.759 139 157z"/>
<path style="fill:#9bd8d4; stroke:none;" d="M139 161C142.959 162.661 147.737 162 152 162C148.041 160.339 143.263 161 139 161z"/>
<path style="fill:#cffff9; stroke:none;" d="M149 162C150.248 162.685 150.548 162.749 152 163C150.752 162.315 150.452 162.251 149 162z"/>
</svg>
